<svg xmlns="http://www.w3.org/2000/svg" width="24" height="24" viewBox="0 0 24 24">
    <g fill="none" fill-rule="evenodd">
        <g fill="#C3CBD1" fill-rule="nonzero">
            <g>
                <path d="M16.636 12.516c1.253 0 2.435.551 3.243 1.513l.12.142-.155.103-1.37.914-.115.077-.096-.099c-.433-.443-1.011-.65-1.627-.65-1.255 0-2.277.985-2.277 2.242 0 1.257 1.022 2.28 2.277 2.28 1.062 0 1.766-.6 1.904-1.27h-1.732v-1.519h3.779c.009.106.02.274.029.51.014.394-.007.636-.087 1.113-.321 1.93-1.813 3.128-3.893 3.128-2.336 0-4.237-1.903-4.237-4.242s1.9-4.242 4.237-4.242zm-8.898-.001c1.252 0 2.434.551 3.242 1.512l.12.143-.155.103-1.37.914-.115.077-.096-.099c-.433-.443-1.01-.65-1.626-.65-1.256 0-2.277.985-2.277 2.242 0 1.257 1.021 2.28 2.277 2.28 1.06 0 1.765-.6 1.903-1.27H7.909v-1.519h3.779c.009.106.02.274.029.51.014.394-.007.636-.087 1.113-.32 1.93-1.813 3.128-3.892 3.128-2.337 0-4.238-1.903-4.238-4.242s1.901-4.242 4.238-4.242zM7.742 3c2.338 0 4.24 1.905 4.24 4.246s-1.902 4.246-4.24 4.246c-2.34 0-4.242-1.905-4.242-4.246S5.403 3 7.742 3zm9.267.002c1.787 0 3.032 1.41 3.032 3.235 0 1.835-1.31 3.236-3.032 3.236h-2.315v2.012h-1.903V3.002zm3.032 6.761c.474 0 .86.386.86.861s-.386.86-.86.86-.86-.385-.86-.86.386-.86.86-.86zm-12.3-4.748c-1.228 0-2.228 1-2.228 2.23 0 1.231 1 2.232 2.229 2.232 1.228 0 2.228-1.001 2.228-2.231s-1-2.231-2.228-2.231zM17 4.965h-2.306V7.51H17c.795 0 1.038-.734 1.038-1.273 0-.523-.243-1.273-1.038-1.273z" transform="translate(-919 -8) translate(919 8)"/>
            </g>
        </g>
    </g>
</svg>
